<svg width="20" height="20" viewBox="0 0 20 20" fill="none" xmlns="http://www.w3.org/2000/svg">
<rect x="1" y="1" width="18" height="18" rx="1" stroke="#FFCC33" stroke-width="2"/>
<path d="M15.808 6.54818L15.4149 6.15511C15.2914 6.0315 15.1267 5.9635 14.9509 5.9635C14.7751 5.9635 14.6103 6.0315 14.4868 6.15511L8.96361 11.6782L5.51278 8.22731C5.38927 8.10389 5.22449 8.03579 5.04868 8.03579C4.87298 8.03579 4.70829 8.10389 4.58468 8.22731L4.19151 8.62028C4.0679 8.74409 4 8.90896 4 9.08457C4 9.26028 4.0679 9.42506 4.19151 9.54867L8.08771 13.4447C8.09288 13.452 8.09834 13.4588 8.10468 13.4651L8.49785 13.8517C8.62137 13.9748 8.78615 14.0364 8.96332 14.0364H8.96537C9.14127 14.0364 9.30605 13.9748 9.42937 13.8517L9.82263 13.4616C9.82898 13.4554 9.83434 13.4502 9.83756 13.445L15.8079 7.47521C16.064 7.2197 16.064 6.80399 15.808 6.54818Z" fill="#FFCC33"/>
</svg>
